<?xml version="1.0" encoding="UTF-8" standalone="no"?>
<!DOCTYPE svg PUBLIC "-//W3C//DTD SVG 1.1//EN"
 "http://www.w3.org/Graphics/SVG/1.1/DTD/svg11.dtd">
<!-- Generated by graphviz version 2.43.0 (0)
 -->
<!-- Title: incident Pages: 1 -->
<svg width="1255pt" height="44pt"
 viewBox="0.00 0.00 1255.00 44.00" xmlns="http://www.w3.org/2000/svg" xmlns:xlink="http://www.w3.org/1999/xlink">
<g id="graph0" class="graph" transform="scale(1 1) rotate(0) translate(4 40)">
<title>incident</title>
<polygon fill="white" stroke="transparent" points="-4,4 -4,-40 1251,-40 1251,4 -4,4"/>
<!-- Log -->
<g id="node1" class="node">
<title>Log</title>
<path fill="lightgray" stroke="black" d="M213,-36C213,-36 12,-36 12,-36 6,-36 0,-30 0,-24 0,-24 0,-12 0,-12 0,-6 6,0 12,0 12,0 213,0 213,0 219,0 225,-6 225,-12 225,-12 225,-24 225,-24 225,-30 219,-36 213,-36"/>
<text text-anchor="middle" x="112.5" y="-14.3" font-family="Times,serif" font-size="14.00">1. Subject + Incident Logged</text>
</g>
<!-- Negotiation -->
<g id="node2" class="node">
<title>Negotiation</title>
<path fill="lightgray" stroke="black" d="M523,-36C523,-36 273,-36 273,-36 267,-36 261,-30 261,-24 261,-24 261,-12 261,-12 261,-6 267,0 273,0 273,0 523,0 523,0 529,0 535,-6 535,-12 535,-12 535,-24 535,-24 535,-30 529,-36 523,-36"/>
<text text-anchor="middle" x="398" y="-14.3" font-family="Times,serif" font-size="14.00">2. Negotiations &amp; Demand Tracking</text>
</g>
<!-- Log&#45;&gt;Negotiation -->
<g id="edge1" class="edge">
<title>Log&#45;&gt;Negotiation</title>
<path fill="none" stroke="black" d="M225.14,-18C233.6,-18 242.22,-18 250.85,-18"/>
<polygon fill="black" stroke="black" points="250.99,-21.5 260.99,-18 250.99,-14.5 250.99,-21.5"/>
</g>
<!-- Coordination -->
<g id="node3" class="node">
<title>Coordination</title>
<path fill="lightgray" stroke="black" d="M887,-36C887,-36 583,-36 583,-36 577,-36 571,-30 571,-24 571,-24 571,-12 571,-12 571,-6 577,0 583,0 583,0 887,0 887,0 893,0 899,-6 899,-12 899,-12 899,-24 899,-24 899,-30 893,-36 887,-36"/>
<text text-anchor="middle" x="735" y="-14.3" font-family="Times,serif" font-size="14.00">3. Team Coordination &amp; Command Updates</text>
</g>
<!-- Negotiation&#45;&gt;Coordination -->
<g id="edge2" class="edge">
<title>Negotiation&#45;&gt;Coordination</title>
<path fill="none" stroke="black" d="M535.26,-18C543.72,-18 552.29,-18 560.89,-18"/>
<polygon fill="black" stroke="black" points="560.98,-21.5 570.98,-18 560.98,-14.5 560.98,-21.5"/>
</g>
<!-- Resolution -->
<g id="node4" class="node">
<title>Resolution</title>
<path fill="lightgray" stroke="black" d="M1033,-36C1033,-36 947,-36 947,-36 941,-36 935,-30 935,-24 935,-24 935,-12 935,-12 935,-6 941,0 947,0 947,0 1033,0 1033,0 1039,0 1045,-6 1045,-12 1045,-12 1045,-24 1045,-24 1045,-30 1039,-36 1033,-36"/>
<text text-anchor="middle" x="990" y="-14.3" font-family="Times,serif" font-size="14.00">4. Resolution</text>
</g>
<!-- Coordination&#45;&gt;Resolution -->
<g id="edge3" class="edge">
<title>Coordination&#45;&gt;Resolution</title>
<path fill="none" stroke="black" d="M899.09,-18C907.96,-18 916.57,-18 924.73,-18"/>
<polygon fill="black" stroke="black" points="924.79,-21.5 934.79,-18 924.79,-14.5 924.79,-21.5"/>
</g>
<!-- Reports -->
<g id="node5" class="node">
<title>Reports</title>
<path fill="lightgray" stroke="black" d="M1235,-36C1235,-36 1093,-36 1093,-36 1087,-36 1081,-30 1081,-24 1081,-24 1081,-12 1081,-12 1081,-6 1087,0 1093,0 1093,0 1235,0 1235,0 1241,0 1247,-6 1247,-12 1247,-12 1247,-24 1247,-24 1247,-30 1241,-36 1235,-36"/>
<text text-anchor="middle" x="1164" y="-14.3" font-family="Times,serif" font-size="14.00">5. Reports &amp; Debrief</text>
</g>
<!-- Resolution&#45;&gt;Reports -->
<g id="edge4" class="edge">
<title>Resolution&#45;&gt;Reports</title>
<path fill="none" stroke="black" d="M1045.42,-18C1053.56,-18 1062.13,-18 1070.79,-18"/>
<polygon fill="black" stroke="black" points="1070.97,-21.5 1080.97,-18 1070.97,-14.5 1070.97,-21.5"/>
</g>
</g>
</svg>
