<?xml version="1.0" encoding="UTF-8" standalone="no"?>
<!DOCTYPE svg PUBLIC "-//W3C//DTD SVG 1.1//EN"
 "http://www.w3.org/Graphics/SVG/1.1/DTD/svg11.dtd">
<!-- Generated by graphviz version 2.43.0 (0)
 -->
<!-- Title: multi_tenant Pages: 1 -->
<svg width="388pt" height="158pt"
 viewBox="0.00 0.00 388.00 158.00" xmlns="http://www.w3.org/2000/svg" xmlns:xlink="http://www.w3.org/1999/xlink">
<g id="graph0" class="graph" transform="scale(1 1) rotate(0) translate(4 154)">
<title>multi_tenant</title>
<polygon fill="white" stroke="transparent" points="-4,4 -4,-154 384,-154 384,4 -4,4"/>
<!-- Agency1 -->
<g id="node1" class="node">
<title>Agency1</title>
<polygon fill="none" stroke="black" points="181,-150 178,-154 157,-154 154,-150 34,-150 34,-112 181,-112 181,-150"/>
<text text-anchor="middle" x="107.5" y="-134.8" font-family="Times,serif" font-size="14.00">tiffin.yourapp.com</text>
<text text-anchor="middle" x="107.5" y="-119.8" font-family="Times,serif" font-size="14.00">(Tenant A)</text>
</g>
<!-- Central -->
<g id="node4" class="node">
<title>Central</title>
<path fill="lightblue" stroke="black" d="M380,-96.48C380,-99.11 351.09,-101.25 315.5,-101.25 279.91,-101.25 251,-99.11 251,-96.48 251,-96.48 251,-53.52 251,-53.52 251,-50.89 279.91,-48.75 315.5,-48.75 351.09,-48.75 380,-50.89 380,-53.52 380,-53.52 380,-96.48 380,-96.48"/>
<path fill="none" stroke="black" d="M380,-96.48C380,-93.84 351.09,-91.7 315.5,-91.7 279.91,-91.7 251,-93.84 251,-96.48"/>
<text text-anchor="middle" x="315.5" y="-78.8" font-family="Times,serif" font-size="14.00">Central Domain</text>
<text text-anchor="middle" x="315.5" y="-63.8" font-family="Times,serif" font-size="14.00">(yourapp.com)</text>
</g>
<!-- Agency1&#45;&gt;Central -->
<g id="edge1" class="edge">
<title>Agency1&#45;&gt;Central</title>
<path fill="none" stroke="black" d="M181.01,-112.11C192.4,-109.1 204.02,-105.99 215,-103 223.43,-100.71 232.25,-98.27 241.01,-95.83"/>
<polygon fill="black" stroke="black" points="242.16,-99.15 250.85,-93.09 240.28,-92.41 242.16,-99.15"/>
</g>
<!-- Agency2 -->
<g id="node2" class="node">
<title>Agency2</title>
<polygon fill="none" stroke="black" points="215,-94 212,-98 191,-98 188,-94 0,-94 0,-56 215,-56 215,-94"/>
<text text-anchor="middle" x="107.5" y="-78.8" font-family="Times,serif" font-size="14.00">johnsoncounty.yourapp.com</text>
<text text-anchor="middle" x="107.5" y="-63.8" font-family="Times,serif" font-size="14.00">(Tenant B)</text>
</g>
<!-- Agency2&#45;&gt;Central -->
<g id="edge2" class="edge">
<title>Agency2&#45;&gt;Central</title>
<path fill="none" stroke="black" d="M215.12,-75C223.78,-75 232.4,-75 240.74,-75"/>
<polygon fill="black" stroke="black" points="240.76,-78.5 250.76,-75 240.76,-71.5 240.76,-78.5"/>
</g>
<!-- Agency3 -->
<g id="node3" class="node">
<title>Agency3</title>
<polygon fill="none" stroke="black" points="207.5,-38 204.5,-42 183.5,-42 180.5,-38 7.5,-38 7.5,0 207.5,0 207.5,-38"/>
<text text-anchor="middle" x="107.5" y="-22.8" font-family="Times,serif" font-size="14.00">otheragency.yourapp.com</text>
<text text-anchor="middle" x="107.5" y="-7.8" font-family="Times,serif" font-size="14.00">(Tenant C)</text>
</g>
<!-- Agency3&#45;&gt;Central -->
<g id="edge3" class="edge">
<title>Agency3&#45;&gt;Central</title>
<path fill="none" stroke="black" d="M181.59,-38.04C192.79,-41.01 204.21,-44.06 215,-47 223.43,-49.29 232.25,-51.73 241.01,-54.17"/>
<polygon fill="black" stroke="black" points="240.28,-57.59 250.85,-56.91 242.16,-50.85 240.28,-57.59"/>
</g>
</g>
</svg>
