<?xml version="1.0" encoding="UTF-8" standalone="no"?>
<!DOCTYPE svg PUBLIC "-//W3C//DTD SVG 1.1//EN"
 "http://www.w3.org/Graphics/SVG/1.1/DTD/svg11.dtd">
<!-- Generated by graphviz version 2.43.0 (0)
 -->
<!-- Title: realtime Pages: 1 -->
<svg width="351pt" height="152pt"
 viewBox="0.00 0.00 351.19 152.00" xmlns="http://www.w3.org/2000/svg" xmlns:xlink="http://www.w3.org/1999/xlink">
<g id="graph0" class="graph" transform="scale(1 1) rotate(0) translate(4 148)">
<title>realtime</title>
<polygon fill="white" stroke="transparent" points="-4,4 -4,-148 347.19,-148 347.19,4 -4,4"/>
<!-- Negotiator -->
<g id="node1" class="node">
<title>Negotiator</title>
<ellipse fill="lightyellow" stroke="black" cx="67.59" cy="-126" rx="61.19" ry="18"/>
<text text-anchor="middle" x="67.59" y="-122.3" font-family="Times,serif" font-size="14.00">Negotiator</text>
</g>
<!-- Server -->
<g id="node4" class="node">
<title>Server</title>
<path fill="lightblue" stroke="black" d="M343.19,-93.48C343.19,-96.11 304.64,-98.25 257.19,-98.25 209.73,-98.25 171.19,-96.11 171.19,-93.48 171.19,-93.48 171.19,-50.52 171.19,-50.52 171.19,-47.89 209.73,-45.75 257.19,-45.75 304.64,-45.75 343.19,-47.89 343.19,-50.52 343.19,-50.52 343.19,-93.48 343.19,-93.48"/>
<path fill="none" stroke="black" d="M343.19,-93.48C343.19,-90.84 304.64,-88.7 257.19,-88.7 209.73,-88.7 171.19,-90.84 171.19,-93.48"/>
<text text-anchor="middle" x="257.19" y="-75.8" font-family="Times,serif" font-size="14.00">Reverb Server</text>
<text text-anchor="middle" x="257.19" y="-60.8" font-family="Times,serif" font-size="14.00">(Encrypted Channels)</text>
</g>
<!-- Negotiator&#45;&gt;Server -->
<g id="edge1" class="edge">
<title>Negotiator&#45;&gt;Server</title>
<path fill="none" stroke="black" d="M112.1,-113.48C127.17,-109.14 144.7,-104.09 162.23,-99.05"/>
<polygon fill="black" stroke="black" points="163.32,-102.38 171.96,-96.25 161.38,-95.65 163.32,-102.38"/>
</g>
<!-- Commander -->
<g id="node2" class="node">
<title>Commander</title>
<ellipse fill="lightyellow" stroke="black" cx="67.59" cy="-72" rx="67.69" ry="18"/>
<text text-anchor="middle" x="67.59" y="-68.3" font-family="Times,serif" font-size="14.00">Commander</text>
</g>
<!-- Commander&#45;&gt;Server -->
<g id="edge2" class="edge">
<title>Commander&#45;&gt;Server</title>
<path fill="none" stroke="black" d="M135.26,-72C143.59,-72 152.23,-72 160.88,-72"/>
<polygon fill="black" stroke="black" points="161.03,-75.5 171.03,-72 161.03,-68.5 161.03,-75.5"/>
</g>
<!-- Scribe -->
<g id="node3" class="node">
<title>Scribe</title>
<ellipse fill="lightyellow" stroke="black" cx="67.59" cy="-18" rx="40.09" ry="18"/>
<text text-anchor="middle" x="67.59" y="-14.3" font-family="Times,serif" font-size="14.00">Scribe</text>
</g>
<!-- Scribe&#45;&gt;Server -->
<g id="edge3" class="edge">
<title>Scribe&#45;&gt;Server</title>
<path fill="none" stroke="black" d="M102.13,-27.65C119.13,-32.55 140.71,-38.76 162.29,-44.97"/>
<polygon fill="black" stroke="black" points="161.62,-48.42 172.19,-47.82 163.55,-41.69 161.62,-48.42"/>
</g>
</g>
</svg>
